<?xml version="1.0" encoding="UTF-8" standalone="no"?>
<!-- Created with Inkscape (http://www.inkscape.org/) -->

<svg
   xmlns:dc="http://purl.org/dc/elements/1.1/"
   xmlns:cc="http://creativecommons.org/ns#"
   xmlns:rdf="http://www.w3.org/1999/02/22-rdf-syntax-ns#"
   xmlns:svg="http://www.w3.org/2000/svg"
   xmlns="http://www.w3.org/2000/svg"
   xmlns:sodipodi="http://sodipodi.sourceforge.net/DTD/sodipodi-0.dtd"
   xmlns:inkscape="http://www.inkscape.org/namespaces/inkscape"
   width="952"
   height="358"
   viewBox="0 0 251.88333 94.720836"
   version="1.1"
   id="svg3825"
   inkscape:version="0.92.5 (2060ec1f9f, 2020-04-08)"
   sodipodi:docname="cover.svg">
  <defs
     id="defs3819" />
  <sodipodi:namedview
     id="base"
     pagecolor="#ffffff"
     bordercolor="#666666"
     borderopacity="1.0"
     inkscape:pageopacity="0.0"
     inkscape:pageshadow="2"
     inkscape:zoom="0.35"
     inkscape:cx="400"
     inkscape:cy="217.14286"
     inkscape:document-units="mm"
     inkscape:current-layer="layer1"
     showgrid="false"
     units="px"
     showguides="false"
     inkscape:window-width="1920"
     inkscape:window-height="1015"
     inkscape:window-x="0"
     inkscape:window-y="0"
     inkscape:window-maximized="1">
    <inkscape:grid
       type="xygrid"
       id="grid4023" />
  </sodipodi:namedview>
  <metadata
     id="metadata3822">
    <rdf:RDF>
      <cc:Work
         rdf:about="">
        <dc:format>image/svg+xml</dc:format>
        <dc:type
           rdf:resource="http://purl.org/dc/dcmitype/StillImage" />
        <dc:title></dc:title>
      </cc:Work>
    </rdf:RDF>
  </metadata>
  <g
     inkscape:label="Layer 1"
     inkscape:groupmode="layer"
     id="layer1"
     transform="translate(0,-202.27915)">
    <path
       inkscape:connector-curvature="0"
       style="fill:#000000;stroke-width:0.71698165"
       d="m 72.530542,265.24998 h 4.955371 v -8.89007 h 5.519321 l 4.317658,8.89007 h 5.611106 l -4.736385,-9.72807 c 1.493459,-0.68007 2.592583,-1.70635 3.297393,-3.07874 0.716272,-1.38449 1.074757,-2.96939 1.074757,-4.75473 0,-2.2103 -0.540617,-4.09279 -1.621827,-5.64731 -1.080506,-1.55456 -2.799078,-2.51402 -5.155086,-2.87836 -0.339873,-0.0607 -0.728469,-0.0973 -1.165814,-0.10921 -0.425149,-0.0244 -0.765021,-0.0363 -1.020264,-0.0363 h -11.07623 z m 4.955371,-13.51725 v -8.08847 h 5.902173 c 0.255269,0 0.534166,0.0109 0.838163,0.0363 0.303284,0.0244 0.582889,0.0729 0.838132,0.14579 0.667523,0.1821 1.183754,0.49181 1.547983,0.92902 0.364209,0.4251 0.613733,0.90485 0.747086,1.43921 0.145519,0.52219 0.218685,1.02013 0.218685,1.49376 0,0.47371 -0.07317,0.97769 -0.218685,1.51202 -0.133328,0.52228 -0.382877,1.00201 -0.747086,1.43922 -0.364229,0.42509 -0.88046,0.72868 -1.547983,0.91086 -0.255268,0.0729 -0.534848,0.12141 -0.838132,0.14579 -0.303997,0.0244 -0.582894,0.0363 -0.838163,0.0363 z"
       id="path2" />
    <path
       inkscape:connector-curvature="0"
       style="fill:#000000;stroke-width:0.71698165"
       d="m 105.35498,265.79653 c 1.89498,0 3.63797,-0.49794 5.22893,-1.49384 1.60318,-0.99585 2.77474,-2.39254 3.5154,-4.18997 l -4.95507,-1.42094 c -0.75283,1.65169 -2.11297,2.47749 -4.08036,2.47749 -1.34791,0 -2.41048,-0.37648 -3.1884,-1.12947 -0.76505,-0.75296 -1.23825,-1.83388 -1.42035,-3.24268 h 13.80835 c 0.20649,-2.38038 -0.0366,-4.45109 -0.72844,-6.21208 -0.69262,-1.76103 -1.76093,-3.12732 -3.20637,-4.09891 -1.44542,-0.97157 -3.19987,-1.4574 -5.26479,-1.4574 -1.943,0 -3.66162,0.44331 -5.155817,1.32984 -1.493468,0.87445 -2.665729,2.10717 -3.515354,3.69813 -0.850354,1.591 -1.275533,3.46132 -1.275533,5.61097 0,1.96748 0.430923,3.71631 1.293448,5.24658 0.874715,1.51815 2.077112,2.71444 3.607126,3.58884 1.54225,0.86225 3.32179,1.29344 5.33723,1.29344 z m -0.0724,-16.46851 c 1.1902,0 2.10077,0.29757 2.73244,0.89266 0.64384,0.59508 1.05682,1.56066 1.23895,2.89655 h -8.67193 c 0.52268,-2.52617 2.08931,-3.78921 4.70054,-3.78921 z"
       id="path4" />
    <path
       inkscape:connector-curvature="0"
       style="fill:#000000;stroke-width:0.71698165"
       d="m 125.33583,265.79653 c 2.5747,0 4.59081,-0.57688 6.04845,-1.73065 1.45764,-1.15376 2.18611,-2.73873 2.18611,-4.75474 0,-1.53023 -0.47393,-2.73864 -1.42109,-3.62526 -0.93493,-0.88656 -2.52595,-1.62131 -4.77294,-2.20429 -1.53005,-0.38859 -2.6722,-0.70437 -3.425,-0.94728 -0.74066,-0.24281 -1.2325,-0.47973 -1.47558,-0.71053 -0.23088,-0.23061 -0.34629,-0.51615 -0.34629,-0.85616 0,-0.57085 0.27389,-1.00806 0.82022,-1.31165 0.55853,-0.30364 1.29342,-0.4251 2.20399,-0.36437 1.93086,0.14579 2.98768,0.9716 3.16981,2.47755 l 5.06474,-0.91087 c -0.25526,-1.78526 -1.12995,-3.20016 -2.62344,-4.2446 -1.4942,-1.0566 -3.40064,-1.58495 -5.72007,-1.58495 -2.38038,0 -4.28111,0.55867 -5.70219,1.67603 -1.42102,1.11733 -2.13155,2.62326 -2.13155,4.51789 0,1.50598 0.49184,2.69615 1.47555,3.57057 0.98368,0.86231 2.67792,1.60311 5.08268,2.22253 1.42105,0.37648 2.46568,0.68013 3.1332,0.91084 0.68042,0.23088 1.1178,0.46762 1.31209,0.71053 0.1943,0.23061 0.2911,0.54046 0.2911,0.92905 0,0.61939 -0.24227,1.10517 -0.72847,1.45742 -0.4861,0.34006 -1.17801,0.51005 -2.07711,0.51005 -1.09268,0 -1.99747,-0.26123 -2.71374,-0.78337 -0.70481,-0.52219 -1.1601,-1.24483 -1.36659,-2.16784 l -5.06477,0.76513 c 0.32838,2.05251 1.25115,3.6435 2.7697,4.77294 1.53005,1.11737 3.53402,1.67603 6.01119,1.67603 z"
       id="path6" />
    <path
       inkscape:connector-curvature="0"
       style="fill:#000000;stroke-width:0.71698165"
       d="m 144.16805,265.83296 c 1.42109,0 2.66004,-0.23685 3.71615,-0.71045 1.0568,-0.47371 1.94371,-1.10525 2.65998,-1.89463 v 2.0221 h 4.37215 v -19.67469 h -4.99163 v 9.9831 c 0,1.2145 -0.13983,2.19821 -0.4187,2.95118 -0.26746,0.74085 -0.61376,1.30561 -1.03817,1.6942 -0.42518,0.37651 -0.88117,0.63154 -1.36659,0.76511 -0.4861,0.1336 -0.94141,0.20025 -1.36656,0.20025 -1.05611,0 -1.87637,-0.23684 -2.45923,-0.71044 -0.57072,-0.47366 -0.98371,-1.06265 -1.23895,-1.76705 -0.25446,-0.70446 -0.40654,-1.40273 -0.45529,-2.09505 -0.0488,-0.70435 -0.0724,-1.28125 -0.0724,-1.73066 v -9.29078 h -5.02821 v 11.03965 c 0,0.32795 0.0244,0.85022 0.0724,1.56676 0.0488,0.71657 0.18861,1.51202 0.41943,2.38647 0.23089,0.86223 0.61303,1.69416 1.1479,2.49574 0.54634,0.8016 1.30562,1.46344 2.27713,1.98568 0.97152,0.52225 2.22838,0.78337 3.77059,0.78337 z"
       id="path8" />
    <path
       inkscape:connector-curvature="0"
       style="fill:#000000;stroke-width:0.71698165"
       d="m 159.27917,265.24998 h 4.99162 v -10.05596 c 0,-2.2832 0.89838,-3.83777 2.69586,-4.6636 0.58292,-0.27934 1.23324,-0.44331 1.94948,-0.49193 0.72844,-0.0607 1.36656,-0.005 1.9129,0.16395 v -4.62718 c -0.88692,-0.10921 -1.7731,-0.0851 -2.65998,0.0729 -0.88621,0.14579 -1.68779,0.43721 -2.40477,0.87445 -0.46102,0.2672 -0.86826,0.58907 -1.2203,0.96555 -0.33987,0.37649 -0.63742,0.79549 -0.89266,1.25695 v -3.16978 h -4.37215 z"
       id="path10" />
    <path
       inkscape:connector-curvature="0"
       style="fill:#000000;stroke-width:0.71698165"
       d="m 175.20478,265.24998 h 4.95578 v -15.84912 h 4.55426 v -3.82557 h -4.55426 v -1.09305 c 0,-0.54653 0.1878,-1.01409 0.56425,-1.40277 0.37643,-0.40079 0.9536,-0.6011 1.73082,-0.6011 h 2.25919 v -4.00787 h -2.44132 c -0.47393,0 -1.04465,0.0109 -1.71215,0.0363 -0.66822,0.0109 -1.36084,0.14579 -2.07711,0.40078 -0.70405,0.24308 -1.36009,0.70444 -1.96739,1.38456 -0.46173,0.51008 -0.78367,1.08085 -0.96577,1.71239 -0.18211,0.63159 -0.28535,1.2631 -0.30974,1.89463 -0.0244,0.61937 -0.0366,1.17804 -0.0366,1.676 h -3.09665 v 3.82557 h 3.09665 z"
       id="path12" />
    <path
       inkscape:connector-curvature="0"
       style="fill:#000000;stroke-width:0.71698165"
       d="m 191.82299,265.79653 c 1.51782,0 2.79333,-0.23088 3.82509,-0.69231 1.04465,-0.47364 2.00397,-1.2266 2.87866,-2.25892 v 2.40468 h 4.33563 v -12.02341 c 0,-0.89875 -0.0366,-1.71245 -0.10894,-2.44113 -0.0732,-0.72874 -0.30402,-1.45742 -0.69262,-2.18605 -0.69188,-1.31165 -1.71217,-2.23472 -3.06009,-2.76908 -1.34862,-0.53435 -2.89085,-0.80158 -4.62739,-0.80158 -2.36818,0 -4.2388,0.51014 -5.61111,1.53027 -1.37227,1.02018 -2.30723,2.34395 -2.80555,3.97142 l 4.48185,1.42092 c 0.31548,-0.89873 0.86827,-1.52417 1.65768,-1.87643 0.78941,-0.35217 1.54866,-0.52829 2.27713,-0.52829 1.16581,0 2.03408,0.21869 2.6048,0.65585 0.57073,0.42509 0.90483,1.09915 1.00235,2.0221 -1.84625,0.26719 -3.4738,0.52834 -4.88266,0.78339 -1.40886,0.24281 -2.58686,0.53436 -3.53402,0.87443 -1.57877,0.58297 -2.69008,1.37845 -3.33395,2.38647 -0.64313,0.99587 -0.96506,2.17998 -0.96506,3.55233 0,1.09306 0.24876,2.09506 0.74638,3.0059 0.51048,0.89875 1.25114,1.62128 2.22266,2.16786 0.98368,0.53437 2.18033,0.80158 3.58919,0.80158 z m 1.05612,-3.8985 c -0.84963,0 -1.5236,-0.18833 -2.02191,-0.56478 -0.49759,-0.3886 -0.74709,-0.91694 -0.74709,-1.5849 0,-0.49793 0.15771,-0.923 0.47393,-1.27521 0.31546,-0.36437 0.83816,-0.69223 1.5666,-0.98376 0.55853,-0.20649 1.24467,-0.39469 2.05844,-0.56471 0.82597,-0.1821 2.07067,-0.4129 3.7348,-0.69223 -0.0136,0.47363 -0.0488,0.99587 -0.10975,1.56668 -0.0602,0.55866 -0.1943,1.05053 -0.40082,1.4756 -0.13332,0.27934 -0.3886,0.62541 -0.76502,1.03834 -0.36421,0.41299 -0.86179,0.78337 -1.49347,1.11132 -0.61947,0.31575 -1.3845,0.47365 -2.29577,0.47365 z"
       id="path14" />
    <path
       inkscape:connector-curvature="0"
       style="fill:#000000;stroke-width:0.71698165"
       d="m 215.54216,265.79653 c 2.2829,0 4.20224,-0.56476 5.75665,-1.69423 1.55441,-1.12945 2.61125,-2.73865 3.16979,-4.82758 l -5.06477,-1.0566 c -0.2911,0.94726 -0.72847,1.676 -1.31136,2.18607 -0.58289,0.51006 -1.43325,0.76508 -2.55031,0.76508 -1.4942,0 -2.62345,-0.52826 -3.38845,-1.58489 -0.75282,-1.06872 -1.12925,-2.45931 -1.12925,-4.17176 0,-1.63958 0.35778,-3.00587 1.07476,-4.09889 0.72846,-1.10517 1.87634,-1.65776 3.44294,-1.65776 0.91057,0 1.72437,0.28538 2.44062,0.85615 0.72916,0.57086 1.23895,1.36637 1.53074,2.3865 l 4.95508,-1.31165 c -0.43737,-2.02821 -1.44545,-3.62521 -3.02424,-4.79116 -1.5666,-1.178 -3.50963,-1.76708 -5.82976,-1.76708 -2.00398,0 -3.74049,0.44941 -5.20962,1.34808 -1.4698,0.89873 -2.61123,2.13145 -3.425,3.6981 -0.80158,1.56677 -1.20239,3.34596 -1.20239,5.33771 0,1.9675 0.38862,3.73455 1.16584,5.30123 0.77719,1.56669 1.89425,2.8055 3.35186,3.71632 1.45764,0.91094 3.20634,1.36636 5.24687,1.36636 z"
       id="path16" />
    <path
       inkscape:connector-curvature="0"
       style="fill:#000000;stroke-width:0.71698165"
       d="m 235.9948,265.79653 c 1.89496,0 3.63724,-0.49794 5.22823,-1.49384 1.60316,-0.99585 2.77542,-2.39254 3.51608,-4.18997 l -4.95507,-1.42094 c -0.75283,1.65169 -2.11297,2.47749 -4.08033,2.47749 -1.34865,0 -2.41124,-0.37648 -3.1884,-1.12947 -0.76505,-0.75296 -1.23896,-1.83388 -1.42108,-3.24268 h 13.80907 c 0.20649,-2.38038 -0.0366,-4.45109 -0.72846,-6.21208 -0.69262,-1.76103 -1.76161,-3.12732 -3.20635,-4.09891 -1.44544,-0.97157 -3.20062,-1.4574 -5.26478,-1.4574 -1.94376,0 -3.66163,0.44331 -5.15582,1.32984 -1.49349,0.87445 -2.66575,2.10717 -3.51608,3.69813 -0.84963,1.591 -1.27481,3.46132 -1.27481,5.61097 0,1.96748 0.43093,3.71631 1.29346,5.24658 0.87398,1.51815 2.07635,2.71444 3.60713,3.58884 1.54223,0.86225 3.32105,1.29344 5.33721,1.29344 z m -0.0724,-16.46851 c 1.1902,0 2.10074,0.29757 2.73242,0.89266 0.64383,0.59508 1.05681,1.56066 1.23895,2.89655 h -8.6719 c 0.52267,-2.52617 2.08928,-3.78921 4.70053,-3.78921 z"
       id="path18" />
    <path
       inkscape:connector-curvature="0"
       style="clip-rule:evenodd;fill:#0b64ff;fill-rule:evenodd;stroke-width:0.71698165"
       d="m 47.329424,264.32104 c 1.984317,-1.77508 3.688944,-3.89292 5.019161,-6.35803 4.917622,-9.11334 3.17895,-20.20225 -3.604351,-27.45331 l 0.803253,-0.73706 c 7.100846,7.59064 8.916243,19.18594 3.77404,28.71544 -1.390885,2.57751 -3.173995,4.79272 -5.248173,6.64819 z"
       id="path20" />
    <path
       inkscape:connector-curvature="0"
       style="clip-rule:evenodd;fill:#0b64ff;fill-rule:evenodd;stroke-width:0.71698165"
       d="m 48.060158,265.39596 -0.993294,-1.08839 0.139288,-0.12465 c 1.96884,-1.76126 3.659979,-3.8623 4.979733,-6.30798 4.878627,-9.04098 3.154211,-20.0441 -3.576682,-27.23923 l -0.127634,-0.13631 1.075757,-0.98707 0.125197,0.13387 c 7.153274,7.64662 8.983012,19.3277 3.801729,28.92951 -1.401343,2.59698 -3.19803,4.82902 -5.287595,6.69825 z m 0.02709,-0.52024 c 2.000685,-1.81639 3.722794,-3.97402 5.072734,-6.47569 5.072936,-9.40107 3.323203,-20.83034 -3.621773,-28.36697 l -0.530697,0.48696 c 6.730165,7.30922 8.430842,18.40214 3.504953,27.5306 -1.309564,2.42699 -2.979351,4.52001 -4.919849,6.28305 z"
       id="path22" />
    <path
       inkscape:connector-curvature="0"
       style="clip-rule:evenodd;fill:#0b64ff;fill-rule:evenodd;stroke-width:0.71698165"
       d="m 20.57323,267.40137 c 7.088246,3.82487 15.273383,3.6497 21.981025,0.21841 l 0.497285,0.97214 c -7.013288,3.58757 -15.578723,3.77319 -22.99681,-0.22979 -5.57769,-3.00977 -9.529281,-7.8638 -11.5138305,-13.40937 l 1.0280598,-0.36789 c 1.8975507,5.30236 5.6735907,9.93981 11.0042707,12.81636 z"
       id="path24" />
    <path
       inkscape:connector-curvature="0"
       style="clip-rule:evenodd;fill:#0b64ff;fill-rule:evenodd;stroke-width:0.71698165"
       d="m 43.131641,268.75639 c -7.065067,3.61401 -15.69481,3.80142 -23.168831,-0.2317 -5.6195,-3.03242 -9.600811,-7.92308 -11.6001105,-13.5098 l -0.0623,-0.17424 1.3762798,-0.49249 0.0623,0.17397 c 1.8827707,5.26121 5.6290907,9.86194 10.9179907,12.71597 7.032361,3.79468 15.153115,3.62133 21.808917,0.21652 l 0.16476,-0.0843 0.665729,1.30142 z m -0.333389,-0.24579 -0.328812,-0.64283 c -6.728376,3.37668 -14.901969,3.51971 -21.98804,-0.30403 -5.31427,-2.86766 -9.09549,-7.47189 -11.0276605,-12.74293 l -0.67988,0.24335 c 1.9897705,5.43187 5.8870705,10.17929 11.3646105,13.13505 7.304186,3.94147 15.729223,3.79154 22.659782,0.31139 z"
       id="path26" />
    <path
       inkscape:connector-curvature="0"
       style="clip-rule:evenodd;fill:#0b64ff;fill-rule:evenodd;stroke-width:0.71698165"
       d="m 45.097099,262.11764 c 2.633328,-1.85027 4.879276,-4.31866 6.508766,-7.33848 4.52868,-8.39246 3.694181,-18.34962 -2.523412,-24.37759 l 0.512999,-0.60383 c 6.639034,6.43656 7.682027,16.77028 2.971301,25.49995 -1.711487,3.17179 -4.072666,5.76755 -6.841945,7.71337 z"
       id="path28" />
    <path
       inkscape:connector-curvature="0"
       style="clip-rule:evenodd;fill:#0b64ff;fill-rule:evenodd;stroke-width:0.71698165"
       d="m 45.679717,263.26847 -0.840379,-1.196 0.151213,-0.10622 c 2.610317,-1.83404 4.836762,-4.28089 6.452348,-7.27494 4.497841,-8.33525 3.656944,-18.19814 -2.489382,-24.15706 l -0.124383,-0.12059 0.753067,-0.88629 0.14173,0.13739 c 6.70734,6.50287 7.749062,16.9296 3.005361,25.72057 -1.725421,3.19754 -4.106159,5.81486 -6.898443,7.77683 z m 0.0897,-0.5158 c 2.681153,-1.91744 4.968186,-4.45466 6.634662,-7.54294 4.643876,-8.60599 3.648004,-18.76168 -2.796239,-25.14111 l -0.272881,0.3212 c 6.175803,6.10855 6.963126,16.08314 2.433662,24.47703 -1.612198,2.98768 -3.823086,5.44076 -6.414328,7.29497 z"
       id="path30" />
    <path
       inkscape:connector-curvature="0"
       style="clip-rule:evenodd;fill:#0b64ff;fill-rule:evenodd;stroke-width:0.71698165"
       d="m 22.5795,263.51935 c 5.230395,2.8223 11.135377,3.23284 16.429214,1.60595 l 0.320761,1.0437 c -5.560748,1.70901 -11.769321,1.27868 -17.268505,-1.68878 -4.30089,-2.32079 -7.53884,-5.86079 -9.51627,-9.94906 l 0.98297,-0.4754 c 1.88137,3.88969 4.96074,7.25592 9.05183,9.46359 z"
       id="path32" />
    <path
       inkscape:connector-curvature="0"
       style="clip-rule:evenodd;fill:#0b64ff;fill-rule:evenodd;stroke-width:0.71698165"
       d="m 39.38148,266.34626 c -5.605954,1.7229 -11.865929,1.28919 -17.41064,-1.70278 -4.33644,-2.33999 -7.60121,-5.9094 -9.59493,-10.0313 l -0.0805,-0.16639 1.31596,-0.63643 0.0805,0.16638 c 1.86517,3.85606 4.91757,7.19288 8.97316,9.38134 5.18487,2.79781 11.03845,3.20499 16.287055,1.59191 l 0.176685,-0.0542 0.429455,1.39726 z m -0.285595,-0.29993 -0.212182,-0.69023 c -5.293395,1.57787 -11.176679,1.14202 -16.394363,-1.67351 -4.0683,-2.19531 -7.14471,-5.52669 -9.04922,-9.37971 l -0.6501,0.31439 c 1.96803,3.98438 5.14942,7.43059 9.35647,9.70076 5.395342,2.9114 11.479311,3.36045 16.949365,1.7283 z"
       id="path34" />
    <path
       inkscape:connector-curvature="0"
       style="fill:#0b64ff;stroke-width:0.71698165"
       d="m 36.647483,270.49341 c 0.643699,1.29036 2.493277,2.13955 3.112835,2.32496 1.663551,0.55023 2.620724,0.24795 2.791932,0.71248 0.188876,0.52373 -0.635975,1.5924 -1.554777,1.91546 -1.907171,0.68316 -3.705427,0.38275 -4.557132,0.12168 -1.413675,-0.41543 -2.446914,-1.12186 -3.116517,-1.58246 -0.928345,-0.62497 -3.084518,-2.60735 -4.557052,-3.32758"
       id="path36" />
    <path
       inkscape:connector-curvature="0"
       style="clip-rule:evenodd;fill:#0b64ff;fill-rule:evenodd;stroke-width:0.71698165"
       d="m 33.573614,273.6252 c 0.666081,0.45813 1.650355,1.12893 2.992115,1.52327 l 0.0025,5.1e-4 0.0025,5e-4 c 0.794152,0.24334 2.490734,0.52628 4.281894,-0.11517 l 0.0025,-0.001 v 0 c 0.366234,-0.12898 0.738297,-0.41937 0.996194,-0.7428 0.127362,-0.15988 0.214082,-0.31169 0.259062,-0.43528 0.02437,-0.0661 0.03196,-0.11192 0.03412,-0.14011 -0.08834,-0.0287 -0.227087,-0.0482 -0.473436,-0.0751 -0.02166,-0.003 -0.04578,-0.005 -0.06964,-0.008 -0.465823,-0.0504 -1.13513,-0.12303 -1.969981,-0.39835 -0.353043,-0.10677 -1.003349,-0.38236 -1.651274,-0.79678 -0.646005,-0.4132 -1.347207,-1.00048 -1.720974,-1.74982 l 0.781655,-0.38997 c 0.269906,0.54113 0.815423,1.02357 1.410021,1.40387 0.588844,0.37662 1.169326,0.61747 1.437248,0.69768 l 0.0054,0.002 0.0054,0.002 c 0.748242,0.24741 1.341755,0.31188 1.801784,0.36187 0.02166,0.003 0.04306,0.005 0.06395,0.008 0.221936,0.0244 0.45837,0.0507 0.649744,0.11328 0.211097,0.0688 0.442868,0.20622 0.548989,0.49414 l 10e-4,0.003 v 0 c 0.0962,0.2672 0.04769,0.54675 -0.03442,0.7724 -0.08536,0.23413 -0.226816,0.46783 -0.396918,0.68107 -0.336777,0.4223 -0.836012,0.82732 -1.388092,1.02176 -2.020956,0.7235 -3.91872,0.40688 -4.828878,0.12844 -1.482911,-0.43621 -2.563764,-1.17687 -3.236669,-1.63974 -0.331797,-0.22356 -0.814775,-0.61351 -1.348996,-1.04471 -0.242806,-0.19592 -0.496064,-0.40049 -0.750599,-0.60183 -0.842384,-0.66636 -1.71531,-1.3131 -2.403532,-1.64971 l 0.383717,-0.78473 c 0.784308,0.38358 1.725768,1.0881 2.561704,1.7493 0.282851,0.22357 0.552432,0.44136 0.80274,0.64349 0.512919,0.41428 0.944978,0.7631 1.244688,0.96485 l 0.002,10e-4 z"
       id="path38" />
    <path
       inkscape:connector-curvature="0"
       style="fill:#0b64ff;stroke-width:0.71698165"
       d="m 8.3373595,254.76857 c 0.29103,0.38035 0.86057,0.29066 1.8236195,0.11544 0.29437,-0.0395 0.628711,-0.10731 0.952681,-0.15582 0,0 0.78396,-0.0732 1.81928,-0.0604 0.3225,3e-4 0.65376,0.0301 0.96585,0.0496 0.78976,0.0539 1.7452,0.12303 2.88672,0.4907 1.94446,0.62736 3.20798,1.78071 3.81542,2.35666 0.31331,0.29311 0.63546,0.61582 0.95609,0.98737 1.02104,1.09688 2.29776,2.45587 4.65436,3.65309 2.337355,1.18682 5.017507,1.09454 6.631279,1.04715 0.508778,-0.0244 0.958475,-0.0287 1.19212,-0.002 0.758649,0.11165 1.701923,0.57094 2.946587,1.39144 1.05245,0.71684 1.702842,1.16702 2.323667,1.6261 0.430109,0.3066 0.841031,0.60279 1.348071,0.95082 0.937173,0.65459 2.391717,1.63803 4.356874,2.22691 1.113421,0.3279 3.717432,1.11262 6.493294,-0.16882 1.347985,-0.61265 2.655328,-2.11573 2.293837,-3.05527 -0.208117,-0.53409 -0.773066,-0.59081 -1.542098,-0.68321 -0.613728,-0.0583 -1.4508,-0.16259 -2.485854,-0.49775 -0.734885,-0.24768 -2.25346,-0.74451 -3.484435,-2.0043 l -0.02819,-0.0399 c -1.743788,-1.73502 -1.929061,-3.00129 -1.787799,-3.76883 0.111107,-0.11381 0.441084,-0.35754 0.771117,-0.60124 0.890972,-0.68551 2.252672,-1.7374 3.352686,-2.85611 2.028187,-2.05707 3.351298,-4.69306 4.305733,-6.78362 1.090692,-2.38929 2.433366,-5.33738 2.149811,-9.08857 -0.348028,-4.50558 -2.744324,-7.56055 -4.777606,-9.72479 l -0.07533,-0.0902 c -1.551635,-1.63134 -3.547063,-3.12992 -5.949374,-4.42629 -1.402996,-0.75706 -2.934687,-1.45946 -4.605449,-2.08809 -0.164218,-0.0637 -0.309028,-0.11707 -0.366747,-0.14823 -0.202429,-0.0845 -0.439215,-0.0136 -0.570995,0.13848 -0.121403,0.13305 -0.127362,0.32824 -0.03442,0.47772 0.849323,1.27715 0.967118,1.88666 1.283824,3.32316 0.07669,0.36393 0.234671,0.62292 0.405798,1.08752 0.584271,1.6304 2.322832,2.59338 3.260277,2.92555 -0.667734,0.73156 -2.23254,2.34385 -2.379818,4.86996 -0.09457,1.46273 -0.387887,2.09846 -0.543462,2.38677 l -0.04146,0.077 c -0.06368,0.16421 -0.05962,0.34011 0.06314,0.48073 0.103518,0.13034 0.276404,0.22356 0.443521,0.18969 1.442293,-0.18942 2.938265,-0.84632 4.230406,-1.86127 1.031586,-0.8082 1.813407,-1.75118 2.172108,-2.5998 0.307515,0.16585 0.642779,0.69427 0.968907,1.51542 0.37041,0.96915 0.739358,3.55049 -0.647573,6.3506 -0.322987,0.64464 -0.743639,1.28613 -1.270784,1.89503 -1.905513,2.19773 -4.644444,3.54865 -7.681238,3.79596 -3.115196,0.25446 -6.999091,0.0943 -11.533429,-0.51618 l -0.622618,-0.0878 c -2.452008,-0.33052 -4.077348,-0.53758 -5.372938,-0.66592 -4.47239,-0.40339 -8.85493,1.32621 -11.7228707,4.61756 -0.0919,0.12411 -0.1924,0.21869 -0.2842898,0.34288 -1.40224,1.72486 -1.27409,2.31512 -1.05839,2.60521 z m 18.5643825,2.84606 c 0.435581,-0.80719 1.441639,-1.10804 2.248827,-0.67245 0.807182,0.43556 1.108029,1.44165 0.672447,2.24878 -0.435551,0.80719 -1.441639,1.10804 -2.248797,0.67248 -0.807182,-0.43558 -1.108029,-1.44162 -0.672477,-2.24881 z"
       id="path40" />
    <path
       inkscape:connector-curvature="0"
       style="clip-rule:evenodd;fill:#0b64ff;fill-rule:evenodd;stroke-width:0.71698165"
       d="m 27.398484,247.95583 -0.622643,-0.0878 c -2.452011,-0.33061 -4.077321,-0.53762 -5.372901,-0.66595 -4.4724,-0.40337 -8.85496,1.3262 -11.7228807,4.61758 -0.0458,0.0621 -0.094,0.1168 -0.14227,0.17154 -0.0482,0.0547 -0.0962,0.1092 -0.1422598,0.17153 -1.40225,1.72486 -1.2741,2.31512 -1.05842,2.60521 0.29107,0.38036 0.86059,0.29066 1.8236195,0.11545 0.16124,-0.0217 0.33461,-0.052 0.511651,-0.0827 0.14606,-0.0244 0.29459,-0.0512 0.44103,-0.0732 0,0 0.78396,-0.0732 1.81928,-0.0604 0.24579,2.1e-4 0.49672,0.019 0.74036,0.0344 0.0759,0.005 0.15121,0.0109 0.22547,0.0163 0.78976,0.0539 1.7452,0.12276 2.88669,0.4907 1.94446,0.62737 3.20801,1.78071 3.81545,2.35661 0.31331,0.29315 0.63546,0.61587 0.95609,0.98743 1.02104,1.09689 2.29776,2.45586 4.65436,3.653 2.31275,1.17435 4.961143,1.09642 6.579955,1.04875 l 0.05122,-0.002 c 0.508773,-0.0244 0.958475,-0.0287 1.19212,-0.002 0.758644,0.11165 1.701893,0.571 2.946582,1.39149 1.052455,0.71684 1.702843,1.16703 2.323672,1.62614 0.07154,0.0509 0.14281,0.10189 0.213805,0.15257 0.355777,0.25391 0.711609,0.50804 1.13413,0.79813 0.937143,0.65462 2.391688,1.63795 4.356869,2.22694 l 0.02819,0.008 c 1.128732,0.33253 3.712386,1.09368 6.465162,-0.17695 1.347991,-0.61257 2.655358,-2.11565 2.293838,-3.05519 -0.203781,-0.52281 -0.749303,-0.5882 -1.493615,-0.67741 -0.01628,-0.002 -0.03226,-0.003 -0.04849,-0.005 -0.613729,-0.0583 -1.450801,-0.16259 -2.485829,-0.49772 -0.01357,-0.005 -0.02437,-0.008 -0.03769,-0.0136 -0.748106,-0.25201 -2.236495,-0.75296 -3.446822,-1.99161 l -0.02789,-0.0399 c -1.743793,-1.73505 -1.929036,-3.00131 -1.787804,-3.76886 0.111107,-0.11381 0.441089,-0.35751 0.771122,-0.60129 0.890997,-0.68552 2.252672,-1.73741 3.35268,-2.85604 2.028188,-2.05709 3.351304,-4.69316 4.305739,-6.78372 1.090687,-2.38921 2.433366,-5.33727 2.149806,-9.08849 -0.348023,-4.50564 -2.744319,-7.56055 -4.777601,-9.72484 l -0.07534,-0.0902 c -1.551605,-1.63134 -3.547058,-3.1299 -5.949369,-4.4263 -1.403001,-0.75705 -2.934662,-1.45945 -4.605449,-2.08811 -0.03442,-0.0136 -0.06775,-0.0271 -0.09972,-0.0385 -0.121131,-0.0466 -0.221394,-0.0851 -0.267193,-0.10975 -0.202429,-0.0846 -0.43924,-0.0136 -0.57102,0.13847 -0.121403,0.13306 -0.127362,0.32825 -0.03442,0.47772 0.825534,1.24131 0.959968,1.8519 1.257673,3.20415 0.0081,0.0391 0.01628,0.0786 0.02709,0.11897 0.04824,0.22843 0.128177,0.41547 0.223565,0.63803 0.05664,0.13197 0.118423,0.27647 0.182107,0.44941 0.514356,1.43539 1.923287,2.35349 2.892656,2.77924 0.1317,0.0577 0.255269,0.10649 0.367591,0.14633 -0.02437,0.0279 -0.05203,0.0569 -0.07994,0.0873 -0.05826,0.0634 -0.121675,0.13251 -0.188881,0.2073 -0.747162,0.82868 -1.980956,2.34626 -2.110866,4.5754 -0.09457,1.46273 -0.387888,2.09849 -0.543462,2.38679 l -0.04146,0.077 c -0.06368,0.16421 -0.05962,0.34013 0.06314,0.48072 0.103519,0.13035 0.27638,0.22357 0.443522,0.18969 1.442268,-0.18942 2.93827,-0.84629 4.230406,-1.86132 0.897886,-0.70338 1.606535,-1.50883 2.011634,-2.26548 0.06043,-0.11273 0.114086,-0.22437 0.160423,-0.33431 0.09485,0.0512 0.192404,0.13711 0.291666,0.25526 0.221936,0.26476 0.451838,0.69257 0.677272,1.2602 0.37038,0.96913 0.739357,3.55042 -0.647573,6.3506 -0.323018,0.64457 -0.743665,1.28613 -1.270789,1.89504 -1.905513,2.1977 -4.644465,3.54865 -7.681238,3.79584 -3.115216,0.25474 -6.999112,0.0943 -11.53343,-0.51606 z m 11.563536,0.88469 c -3.149689,0.25743 -7.061685,0.0946 -11.612883,-0.51819 l -10e-4,-1.3e-4 -0.621477,-0.0878 c -4.3e-4,-8e-5 -10e-4,-1.4e-4 -0.002,-2.2e-4 -2.45057,-0.3303 -4.0693,-0.53644 -5.35708,-0.66408 -4.35264,-0.39203 -8.61266,1.28996 -11.4001007,4.48193 -0.0523,0.0694 -0.10542,0.12981 -0.14904,0.17939 l -0.003,0.003 c -0.0493,0.0561 -0.0872,0.0994 -0.12249,0.14687 l -0.005,0.008 -0.005,0.005 c -0.6911498,0.85011 -0.9723398,1.38276 -1.0677898,1.71068 -0.0463,0.1588 -0.045,0.25662 -0.0355,0.31375 0.008,0.0528 0.0279,0.09 0.0531,0.12465 0.048,0.0618 0.12872,0.11653 0.36854,0.11896 0.25635,0.003 0.6010198,-0.055 1.0936095,-0.1447 l 0.008,-0.002 0.008,-10e-4 c 0.13928,-0.019 0.2899,-0.0444 0.451291,-0.0724 l 0.0469,-0.008 c 0.14525,-0.0244 0.29808,-0.052 0.44902,-0.0745 l 0.0108,-0.001 0.0109,-0.001 0.0344,0.36824 c -0.0344,-0.36824 -0.0344,-0.36824 -0.0344,-0.36824 h 3.2e-4 l 0.003,-3e-4 0.008,-5e-4 c 0.005,-5e-4 0.0162,-0.002 0.0284,-0.003 0.0244,-0.002 0.0604,-0.005 0.1065,-0.008 0.0921,-0.008 0.22546,-0.0163 0.39116,-0.0244 0.33095,-0.0163 0.79307,-0.0325 1.31946,-0.0271 0.25906,3.5e-4 0.52698,0.0189 0.7722,0.036 0.0737,0.005 0.14552,0.0109 0.21407,0.0136 l 0.002,1.3e-4 c 0.79313,0.0542 1.78737,0.12493 2.97496,0.50761 2.02435,0.65319 3.337,1.85293 3.9556,2.43943 0.31814,0.29776 0.64814,0.62815 0.9779,1.00972 1.01273,1.08785 2.25311,2.40517 4.54638,3.5702 M 38.963021,248.8372 c 3.127738,-0.25473 5.958178,-1.64736 7.930601,-3.92221 l 2.16e-4,-2.2e-4 c 0.547467,-0.6325 0.985139,-1.29973 1.321755,-1.9714 l 5.02e-4,-0.002 c 1.436549,-2.90037 1.065732,-5.58967 0.661719,-6.64687 l -10e-4,-0.002 -0.001,-0.002 c -0.168283,-0.42361 -0.3435,-0.78402 -0.523381,-1.06587 -0.174243,-0.27319 -0.376561,-0.51065 -0.613593,-0.63856 l -0.357998,-0.19321 -0.158252,0.37464 c -0.326646,0.77283 -1.05912,1.66901 -2.05952,2.45267 l -4.32e-4,2.7e-4 c -1.246558,0.97919 -2.681504,1.60571 -4.050093,1.78551 l -0.01357,0.002 -0.01085,0.002 c -0.0025,-2.2e-4 -0.0081,-0.002 -0.01894,-0.005 -0.02166,-0.0109 -0.04472,-0.0279 -0.0626,-0.0504 l -0.0054,-0.005 -0.0054,-0.005 c -0.0054,-0.005 -0.0081,-0.0109 -0.0081,-0.0136 -10e-4,-0.003 -0.0025,-0.005 -0.0025,-0.0136 -0.001,-0.0109 -4.32e-4,-0.0306 0.0081,-0.0602 l 0.02844,-0.0526 c 0.183188,-0.33928 0.489481,-1.02758 0.587065,-2.53855 l 8.1e-5,-0.001 5.5e-5,-10e-4 c 0.133865,-2.29626 1.507816,-3.79547 2.209234,-4.56079 0.02708,-0.0282 0.05067,-0.0553 0.07452,-0.0813 l 0.375772,-0.41177 -0.525467,-0.18617 c -0.436204,-0.15446 -1.069174,-0.46046 -1.658943,-0.91919 -0.590452,-0.45929 -1.115783,-1.05457 -1.376609,-1.78254 l -5.02e-4,-0.002 -5.03e-4,-0.002 c -0.06721,-0.18291 -0.134684,-0.34 -0.191861,-0.47349 -0.01895,-0.0436 -0.03603,-0.0845 -0.0523,-0.12303 -0.06747,-0.16097 -0.115438,-0.29153 -0.146604,-0.4393 l -3.52e-4,-0.002 -3.51e-4,-0.001 c -0.0081,-0.0434 -0.019,-0.0862 -0.02819,-0.12818 -0.142267,-0.64709 -0.253102,-1.15091 -0.426747,-1.63768 -0.187252,-0.52555 -0.443903,-1.02276 -0.877585,-1.67567 -0.0054,-0.0109 -0.0054,-0.019 -0.0054,-0.0244 1.36e-4,-0.003 5.03e-4,-0.005 10e-4,-0.005 5.5e-5,-8e-5 5.5e-5,-3.3e-4 0.001,-0.001 l 0.0025,-0.003 0.0025,-0.003 c 0.01357,-0.0163 0.0393,-0.0336 0.07208,-0.042 0.02709,-0.008 0.05067,-0.005 0.06883,-8e-5 0.04849,0.0244 0.107584,0.0477 0.158258,0.0675 0.03794,0.0163 0.08292,0.0323 0.129262,0.0502 0.03196,0.0136 0.06449,0.0244 0.09592,0.0371 l 0.002,5e-4 0.002,5.1e-4 c 1.65553,0.62281 3.172015,1.3184 4.560082,2.06744 2.3692,1.27846 4.329155,2.75143 5.848785,4.34706 l 0.07452,0.0894 0.0081,0.008 c 2.014504,2.14421 4.340181,5.12149 4.678455,9.49979 0.275535,3.64616 -1.025792,6.51523 -2.117535,8.90674 -0.952299,2.08603 -2.253405,4.67019 -4.232627,6.67758 l -3.77e-4,3.7e-4 c -1.078254,1.09663 -2.4183,2.1328 -3.311659,2.82011 -0.163132,0.12059 -0.330088,0.24389 -0.470185,0.35125 -0.13387,0.1027 -0.265841,0.20785 -0.342932,0.287 l -0.07859,0.0808 -0.01894,0.11083 c -0.169097,0.91946 0.0878,2.29442 1.867518,4.07469 l 0.02708,0.0379 0.02166,0.0217 c 1.27306,1.30293 2.8325,1.82769 3.585406,2.08101 0.01628,0.005 0.0306,0.0109 0.04553,0.0163 l 0.002,5.1e-4 0.002,5e-4 c 1.068466,0.346 1.933638,0.45406 2.560347,0.51363 l 0.01085,0.001 c 0.393064,0.0471 0.673614,0.081 0.886771,0.15582 0.189962,0.0667 0.283264,0.15121 0.338325,0.29188 0.05015,0.13116 0.05257,0.30882 -0.02166,0.53867 -0.07533,0.2298 -0.221394,0.48699 -0.428315,0.74868 -0.414692,0.52498 -1.032023,1.01642 -1.650762,1.2976 l -0.002,10e-4 c -2.626172,1.21229 -5.096041,0.48483 -6.216186,0.155 l -0.01628,-0.005 c -2.72e-4,-1.6e-4 -5.03e-4,-2.2e-4 -10e-4,-3e-4 -1.905513,-0.57119 -3.319675,-1.52549 -4.250401,-2.17559 l -0.0015,-10e-4 -10e-4,-0.001 c -0.419431,-0.28793 -0.772172,-0.53973 -1.127783,-0.7937 -0.07046,-0.0504 -0.140916,-0.10053 -0.212183,-0.15148 -0.626356,-0.463 -1.281623,-0.9165 -2.332777,-1.63242 l -0.0025,-0.002 -0.0025,-0.001 c -1.250186,-0.82416 -2.251531,-1.32434 -3.096277,-1.44859 l -0.0054,-10e-4 -0.0054,-5.1e-4 c -0.267193,-0.0306 -0.744584,-0.0244 -1.248131,-2.9e-4 l -0.02437,5e-4 c -1.627239,0.0479 -4.196476,0.1233 -6.424657,-1.00807 m 0.19755,-4.43633 c 0.532569,-0.98693 1.762976,-1.35487 2.749903,-0.8223 0.987013,0.53257 1.354876,1.76298 0.822304,2.74989 -0.532563,0.98693 -1.762919,1.3549 -2.749902,0.82231 -0.986925,-0.53257 -1.354895,-1.76296 -0.822305,-2.7499 z m 2.574832,-0.49698 c -0.807158,-0.43555 -1.813246,-0.13467 -2.248802,0.67246 -0.43558,0.80718 -0.13468,1.81317 0.672452,2.24873 0.807183,0.43564 1.813241,0.13468 2.248822,-0.67237 0.435557,-0.80725 0.134685,-1.81323 -0.672472,-2.24882 z"
       id="path42" />
  </g>
</svg>
