<?xml version="1.0" encoding="UTF-8" standalone="no"?>
<!-- Generated by Pixelmator Pro 3.5.3 -->

<svg
   width="952"
   height="398"
   viewBox="0 0 952 398"
   version="1.1"
   id="svg44"
   sodipodi:docname="cover-new.svg"
   inkscape:version="1.2 (dc2aeda, 2022-05-15)"
   xmlns:inkscape="http://www.inkscape.org/namespaces/inkscape"
   xmlns:sodipodi="http://sodipodi.sourceforge.net/DTD/sodipodi-0.dtd"
   xmlns="http://www.w3.org/2000/svg"
   xmlns:svg="http://www.w3.org/2000/svg">
  <defs
     id="defs48" />
  <sodipodi:namedview
     id="namedview46"
     pagecolor="#818181"
     bordercolor="#000000"
     borderopacity="0.25"
     inkscape:showpageshadow="2"
     inkscape:pageopacity="0"
     inkscape:pagecheckerboard="true"
     inkscape:deskcolor="#d1d1d1"
     showgrid="false"
     inkscape:zoom="0.44557709"
     inkscape:cx="178.42031"
     inkscape:cy="233.40518"
     inkscape:window-width="1476"
     inkscape:window-height="794"
     inkscape:window-x="0"
     inkscape:window-y="38"
     inkscape:window-maximized="0"
     inkscape:current-layer="svg44" />
  <path
     id="Path"
     fill="#ffffff"
     stroke="none"
     d="m 869.14449,261.03022 c -0.50071,-0.29885 -0.77083,-0.83508 -1.08459,-0.86199 -8.75669,-0.75099 -17.07525,-3.14812 -24.78346,-7.27391 -9.39744,-5.03001 -16.86405,-12.18088 -22.18866,-21.52596 -4.16888,-7.31666 -6.41822,-15.22187 -7.8973,-23.71623 2.66398,0 5.17681,0 7.68974,0 5.23258,0 10.46552,0.0331 15.69753,-0.0213 1.46481,-0.0153 2.0404,0.23095 2.403,1.97321 1.23162,5.91957 3.60945,11.3471 7.70346,15.99128 6.27724,7.12087 14.2398,10.71878 23.50355,11.62219 3.97531,0.38765 8.03902,0.79747 11.98311,0.40318 12.6507,-1.26459 23.12721,-6.4848 29.81248,-17.83142 3.69018,-6.26328 5.38157,-13.09149 5.39202,-20.3431 0.0121,-8.43237 0,-16.86474 0,-26.02317 -1.70444,2.02858 -3.0997,3.5162 -4.29775,5.14854 -3.23377,4.40618 -7.58429,7.50328 -12.1941,10.18738 -6.30139,3.66904 -13.2329,5.78933 -20.42474,6.70443 -5.91315,0.75243 -11.84809,0.59889 -17.83769,-0.24078 -6.24806,-0.87587 -12.18851,-2.54675 -17.76421,-5.27064 -7.07576,-3.45665 -13.15561,-8.27486 -18.25075,-14.4145 -5.74715,-6.92533 -9.79801,-14.67254 -11.94898,-23.32336 -1.29129,-5.19352 -2.01315,-10.55449 -2.62183,-15.8824 -0.3794,-3.32125 -0.11086,-6.72177 -0.0625,-10.08566 0.11338,-7.86368 1.97185,-15.38344 4.73607,-22.68558 3.64449,-9.628084 9.50112,-17.799117 17.31563,-24.413059 6.75043,-5.713274 14.63533,-9.351708 23.26755,-11.494668 6.73963,-1.67313 13.57212,-2.203399 20.38819,-1.656124 10.69565,0.858786 20.66298,3.923904 29.14545,11.02117 4.48274,3.750653 8.00248,8.170726 11.27887,13.790139 0.66239,-7.495388 1.26406,-14.30413 1.87394,-21.204469 7.50308,0 14.87721,0 22.41237,0 0.0335,0.618548 0.0991,1.261947 0.0991,1.9054 0.009,42.608271 0.11095,85.217151 -0.12205,127.824141 -0.0317,5.73586 -1.47321,11.53259 -2.79722,17.1755 -1.65754,7.06401 -4.80693,13.58882 -9.07549,19.46522 -5.54652,7.63586 -12.45714,13.74717 -21.03408,17.87211 -7.30968,3.51549 -14.94861,5.77561 -23.071,6.3092 -0.38807,0.0255 -0.75627,0.35362 -0.99804,0.70799 -5.25804,0.16723 -10.65014,0.16723 -16.25233,0.16723 M 837.99343,119.65112 c -0.009,0.37346 0.0578,0.7631 -0.0251,1.11792 -1.44915,6.1323 -1.2996,12.36517 -0.34033,18.46933 1.20989,7.69844 4.05457,14.80249 9.11297,20.98995 4.17979,5.11271 9.26579,8.74893 15.34704,11.08318 6.95612,2.67001 14.10266,2.92565 21.43641,1.85216 7.13505,-1.04447 13.57229,-3.65254 18.95311,-8.33601 9.32827,-8.11917 13.27814,-18.8996 13.91591,-30.94209 0.22396,-4.2294 -0.34482,-8.5299 -0.84963,-12.76237 -0.92083,-7.72027 -4.02108,-14.62818 -9.05133,-20.48348 -7.24564,-8.434011 -16.90164,-12.108789 -27.7652,-12.6766 -3.48347,-0.182093 -7.03883,0.347434 -10.5168,0.855963 -7.7304,1.130247 -14.28344,4.84494 -19.63491,10.341597 -5.4417,5.58927 -8.76657,12.48287 -10.5817,20.49045 z"
     style="stroke-width:0.448555;fill:#eb5454;fill-opacity:1" />
  <path
     id="API-Security"
     fill="#fffcfc"
     fill-rule="evenodd"
     stroke="none"
     d="m 893.99956,397.3372 c -0.32298,0.71768 -0.72672,1.29185 -1.2111,1.72245 -0.48448,0.43062 -1.22901,0.64594 -2.23386,0.64594 h -7.10513 l 9.95801,-21.63833 -22.49954,-51.35061 h 8.28928 c 0.82528,0 1.47125,0.20635 1.93773,0.61901 0.46649,0.41268 0.80737,0.87019 1.02277,1.37258 l 14.58694,34.34139 c 0.32298,0.78947 0.60112,1.57891 0.83432,2.36836 0.23328,0.78948 0.43962,1.59686 0.61902,2.42221 0.25119,-0.82535 0.50238,-1.63273 0.75357,-2.42221 0.25119,-0.78945 0.53828,-1.59683 0.86126,-2.42217 l 14.15636,-34.28758 c 0.21529,-0.57415 0.58313,-1.0496 1.10351,-1.4264 0.52028,-0.37679 1.08551,-0.56519 1.69549,-0.56519 h 7.64339 z m -40.69293,-15.23294 c -4.30624,0 -7.61646,-1.20213 -9.93107,-3.60639 -2.31451,-2.40426 -3.47181,-5.86706 -3.47181,-10.38854 v -33.3725 h -6.56685 c -0.57418,0 -1.05857,-0.17045 -1.45335,-0.51136 -0.39468,-0.3409 -0.59207,-0.8702 -0.59207,-1.58787 v -3.8217 l 8.93524,-1.13037 2.20692,-16.8477 c 0.0718,-0.53831 0.30499,-0.97789 0.69969,-1.31881 0.39476,-0.3409 0.89715,-0.51135 1.50713,-0.51135 h 4.84442 v 18.78551 h 15.6097 v 6.94365 h -15.6097 v 32.7266 c 0,2.2966 0.55627,4.00108 1.66863,5.11352 1.11245,1.11243 2.5478,1.66864 4.30614,1.66864 1.00475,0 1.87497,-0.13458 2.61064,-0.40371 0.73557,-0.26913 1.3725,-0.56519 1.91078,-0.88814 0.53828,-0.32296 0.99581,-0.61901 1.3726,-0.88816 0.37687,-0.26912 0.70873,-0.40368 0.99572,-0.40368 0.50246,0 0.95095,0.30502 1.34574,0.91505 l 2.79899,4.57526 c -1.65064,1.54304 -3.64227,2.75414 -5.97477,3.6333 -2.33251,0.87918 -4.73672,1.31875 -7.21272,1.31875 z m -34.50287,-55.38761 v 54.52639 h -9.58113 v -54.52639 z m 2.15302,-17.11685 c 0,0.93298 -0.18835,1.80317 -0.56514,2.61056 -0.37687,0.80743 -0.87926,1.52512 -1.50715,2.1531 -0.62796,0.62798 -1.35469,1.12139 -2.17996,1.48022 -0.82536,0.35883 -1.70453,0.53827 -2.6375,0.53827 -0.93305,0 -1.80326,-0.17944 -2.61063,-0.53827 -0.80748,-0.35883 -1.52515,-0.85224 -2.15303,-1.48022 -0.62807,-0.62798 -1.12141,-1.34567 -1.48029,-2.1531 -0.35888,-0.80739 -0.53818,-1.67758 -0.53818,-2.61056 0,-0.93304 0.1793,-1.82116 0.53818,-2.66444 0.35888,-0.84329 0.85222,-1.57891 1.48029,-2.20687 0.62788,-0.62798 1.34555,-1.12138 2.15303,-1.48024 0.80737,-0.35885 1.67758,-0.53826 2.61063,-0.53826 0.93297,0 1.81214,0.17941 2.6375,0.53826 0.82527,0.35886 1.552,0.85226 2.17996,1.48024 0.62789,0.62796 1.13028,1.36358 1.50715,2.20687 0.37679,0.84328 0.56514,1.7314 0.56514,2.66444 z m -57.2715,71.64324 v -54.52639 h 5.49029 c 1.04065,0 1.75833,0.19737 2.15302,0.59212 0.39477,0.39471 0.66388,1.07653 0.80746,2.0454 l 0.64589,8.5046 c 1.86601,-3.80378 4.17149,-6.77316 6.91677,-8.90829 2.74519,-2.13515 5.96573,-3.20269 9.66188,-3.20269 1.50715,0 2.87069,0.17045 4.09075,0.51135 1.22013,0.34089 2.35049,0.81637 3.39106,1.42639 l -1.23795,7.15895 c -0.2512,0.89712 -0.80737,1.34567 -1.66864,1.34567 -0.50238,0 -1.27384,-0.17046 -2.31451,-0.51133 -1.04075,-0.34092 -2.494,-0.51137 -4.36003,-0.51137 -3.33717,0 -6.12721,0.96884 -8.37002,2.90663 -2.24273,1.93776 -4.1177,4.75468 -5.62484,8.45077 v 34.71819 z m -52.64247,-54.52639 v 34.77202 c 0,4.12671 0.95096,7.32041 2.85279,9.58115 1.90192,2.26073 4.77261,3.39106 8.61227,3.39106 2.79899,0 5.43648,-0.66385 7.91249,-1.99159 2.47602,-1.32774 4.75462,-3.17574 6.83594,-5.54413 v -40.20851 h 9.58123 v 54.52639 h -5.70568 c -1.36356,0 -2.22482,-0.66386 -2.5837,-1.99158 l -0.75348,-5.86712 c -2.3684,2.61957 -5.0238,4.72779 -7.96638,6.32465 -2.94258,1.59685 -6.31567,2.39527 -10.11942,2.39527 -2.97848,0 -5.60692,-0.49341 -7.88555,-1.48023 -2.2787,-0.98682 -4.18959,-2.37734 -5.73262,-4.17156 -1.54295,-1.79425 -2.70025,-3.96522 -3.47182,-6.51303 -0.77146,-2.54779 -1.1572,-5.36469 -1.1572,-8.45077 v -34.77202 z m -22.44574,9.68882 c -0.28708,0.39473 -0.57408,0.69972 -0.86117,0.91501 -0.28708,0.21534 -0.69976,0.32298 -1.23805,0.32298 -0.53828,0 -1.1214,-0.22426 -1.74938,-0.67284 -0.62798,-0.44855 -1.4264,-0.94196 -2.39525,-1.48021 -0.96888,-0.53828 -2.14409,-1.03169 -3.52562,-1.48025 -1.38165,-0.44857 -3.07713,-0.67282 -5.08666,-0.67282 -2.65549,0 -5.00581,0.47546 -7.05132,1.4264 -2.04542,0.95094 -3.7589,2.32349 -5.14045,4.11772 -1.38155,1.79423 -2.4222,3.96522 -3.12189,6.51305 -0.69978,2.54778 -1.04961,5.40059 -1.04961,8.55844 0,3.30136 0.37678,6.23487 1.13036,8.80065 0.75358,2.56572 1.81214,4.7188 3.17578,6.45919 1.36355,1.74038 3.02323,3.06812 4.97895,3.98317 1.95563,0.91505 4.15351,1.37258 6.59371,1.37258 2.3326,0 4.25233,-0.27811 5.75946,-0.8343 1.50716,-0.55622 2.76311,-1.17522 3.76786,-1.85704 1.00477,-0.68181 1.83013,-1.30081 2.47601,-1.85703 0.64598,-0.5562 1.29185,-0.8343 1.93782,-0.8343 0.82537,0 1.43535,0.30502 1.83003,0.91507 l 2.69139,3.49872 c -2.3684,2.90666 -5.32888,5.03279 -8.88144,6.37846 -3.55256,1.34567 -7.30243,2.01849 -11.24976,2.01849 -3.40907,0 -6.57581,-0.62797 -9.50039,-1.88394 -2.92459,-1.25595 -5.46335,-3.07707 -7.61646,-5.46339 -2.15303,-2.38632 -3.84861,-5.31983 -5.08665,-8.80066 -1.23797,-3.4808 -1.85699,-7.44598 -1.85699,-11.89567 0,-4.05499 0.56523,-7.80488 1.69559,-11.24978 1.13036,-3.44491 2.78099,-6.41433 4.952,-8.90833 2.17103,-2.49397 4.85336,-4.44067 8.04705,-5.84017 3.19378,-1.39951 6.85394,-2.09923 10.98068,-2.09923 3.80376,0 7.17692,0.61901 10.1194,1.85703 2.9425,1.23801 5.5441,2.98733 7.8049,5.24807 z M 615.5005,325.85544 c 3.2655,0 6.27979,0.54723 9.04289,1.64171 2.76313,1.09447 5.14941,2.67339 7.15894,4.73672 2.00953,2.06339 3.57947,4.61116 4.70981,7.64341 1.13036,3.03225 1.69558,6.48609 1.69558,10.36161 0,1.50716 -0.1615,2.51191 -0.48448,3.01429 -0.32289,0.50237 -0.93297,0.75361 -1.83008,0.75361 h -36.27915 c 0.0718,3.44489 0.53821,6.4412 1.39948,8.98903 0.86122,2.54779 2.04542,4.67393 3.55256,6.37843 1.50714,1.70454 3.30136,2.97843 5.38267,3.82171 2.08129,0.84327 4.41377,1.26492 6.99745,1.26492 2.40426,0 4.47659,-0.27809 6.21698,-0.8343 1.7404,-0.5562 3.23857,-1.15729 4.49452,-1.80321 1.25602,-0.64591 2.30559,-1.24698 3.14887,-1.8032 0.84328,-0.5562 1.56994,-0.8343 2.17997,-0.8343 0.78945,0 1.3995,0.30502 1.83011,0.91507 l 2.69133,3.49872 c -1.18416,1.43539 -2.60162,2.68236 -4.2523,3.74093 -1.65073,1.05862 -3.41799,1.9288 -5.30193,2.61061 -1.88393,0.68181 -3.83066,1.19317 -5.84018,1.53406 -2.00958,0.3409 -4.00112,0.51135 -5.97476,0.51135 -3.76792,0 -7.23963,-0.63695 -10.41545,-1.91085 -3.17578,-1.27391 -5.92093,-3.13987 -8.23548,-5.59797 -2.31455,-2.45809 -4.11773,-5.49927 -5.40958,-9.12361 -1.29183,-3.62435 -1.93776,-7.78689 -1.93776,-12.48778 0,-3.80377 0.58313,-7.35628 1.74937,-10.65768 1.16625,-3.30138 2.84384,-6.16314 5.03279,-8.58534 2.18896,-2.42222 4.86234,-4.32409 8.02016,-5.70561 3.15783,-1.38157 6.7104,-2.07233 10.65767,-2.07233 z m 0.21531,7.05127 c -4.62913,0 -8.27135,1.33669 -10.9268,4.01009 -2.65545,2.67339 -4.30613,6.37845 -4.95205,11.11521 h 29.65847 c 0,-2.22485 -0.305,-4.26128 -0.91505,-6.10934 -0.61003,-1.84806 -1.50714,-3.44489 -2.69132,-4.79054 -1.1842,-1.3457 -2.62855,-2.38634 -4.33306,-3.12197 -1.7045,-0.73561 -3.65124,-1.10345 -5.84019,-1.10345 z m -38.91666,-16.74005 c -0.32295,0.53824 -0.66386,0.94194 -1.02269,1.21107 -0.35885,0.26912 -0.82533,0.40371 -1.3995,0.40371 -0.61003,0 -1.31875,-0.30503 -2.12615,-0.91507 -0.80742,-0.61003 -1.83011,-1.28286 -3.06812,-2.01849 -1.23802,-0.73564 -2.7272,-1.40848 -4.46759,-2.0185 -1.74045,-0.61003 -3.84862,-0.91505 -6.32465,-0.91505 -2.33249,0 -4.39584,0.31399 -6.19007,0.94199 -1.79422,0.62795 -3.29237,1.4802 -4.49452,2.55674 -1.20213,1.07654 -2.10819,2.34144 -2.71825,3.79479 -0.61004,1.45331 -0.91503,3.02323 -0.91503,4.70983 0,2.15306 0.52928,3.9383 1.58786,5.35574 1.05861,1.41745 2.45808,2.62853 4.19848,3.63329 1.74042,1.00477 3.71405,1.87496 5.92094,2.6106 2.20691,0.73563 4.46759,1.49818 6.78215,2.28764 2.31455,0.78947 4.57526,1.6776 6.78215,2.6644 2.20691,0.98686 4.18053,2.2338 5.92094,3.74097 1.74039,1.50716 3.13988,3.35518 4.19847,5.54414 1.05861,2.18896 1.58789,4.88024 1.58789,8.07399 0,3.37317 -0.57415,6.53994 -1.72245,9.50039 -1.1483,2.96048 -2.82589,5.53517 -5.03278,7.72414 -2.20692,2.18895 -4.91615,3.91139 -8.12782,5.16733 -3.21167,1.25599 -6.8629,1.88395 -10.95374,1.88395 -4.98796,0 -9.53626,-0.90607 -13.64504,-2.71825 -4.10879,-1.81218 -7.61648,-4.26126 -10.52313,-7.34734 l 3.01431,-4.95203 c 0.28708,-0.39474 0.63695,-0.72665 1.04963,-0.99582 0.41267,-0.26912 0.87017,-0.40367 1.37258,-0.40367 0.75356,0 1.61479,0.40367 2.58366,1.2111 0.9689,0.8074 2.17997,1.69553 3.63331,2.66442 1.45332,0.96887 3.21164,1.857 5.27501,2.66443 2.06336,0.80739 4.58422,1.21108 7.56264,1.21108 2.47604,0 4.6829,-0.34088 6.62068,-1.02269 1.93777,-0.68182 3.57947,-1.64171 4.92514,-2.87973 1.34566,-1.23802 2.37733,-2.71825 3.09503,-4.4407 0.71769,-1.72248 1.07652,-3.64228 1.07652,-5.75944 0,-2.33252 -0.52929,-4.24334 -1.58789,-5.73255 -1.0586,-1.48921 -2.44908,-2.73618 -4.17155,-3.74097 -1.72246,-1.00476 -3.68711,-1.85701 -5.89401,-2.55678 -2.20692,-0.6997 -4.46761,-1.41741 -6.78216,-2.15305 -2.31455,-0.7356 -4.57527,-1.58788 -6.78216,-2.55677 -2.20691,-0.96887 -4.17155,-2.22482 -5.89402,-3.76784 -1.72246,-1.54304 -3.11297,-3.47183 -4.17156,-5.78635 -1.05861,-2.31458 -1.58791,-5.17636 -1.58791,-8.58537 0,-2.72725 0.5293,-5.3647 1.58791,-7.91252 1.05859,-2.54781 2.59263,-4.80849 4.60218,-6.78214 2.00951,-1.97366 4.49451,-3.55259 7.455,-4.73677 2.96047,-1.1842 6.36047,-1.77626 10.20013,-1.77626 4.30615,0 8.23546,0.6818 11.78802,2.04539 3.55258,1.36361 6.65654,3.33727 9.31202,5.92095 z m -83.10832,65.07638 h -10.44238 v -77.13355 h 10.44238 z m -67.76774,-28.85108 v 28.85108 h -10.38853 v -77.13355 h 22.76868 c 4.88028,0 9.12359,0.56515 12.72999,1.69552 3.60641,1.13037 6.59376,2.73617 8.96214,4.81749 2.36837,2.08129 4.13565,4.59317 5.30192,7.53572 1.16623,2.94255 1.74935,6.22595 1.74935,9.85028 0,3.58846 -0.62797,6.87183 -1.88391,9.85027 -1.25598,2.97843 -3.09504,5.54412 -5.51726,7.6972 -2.4222,2.15307 -5.42748,3.83065 -9.01594,5.03281 -3.58848,1.20213 -7.69721,1.80318 -12.32629,1.80318 z m 0,-8.2893 h 12.38015 c 2.97841,0 5.6069,-0.39472 7.88558,-1.18419 2.27868,-0.78946 4.18951,-1.89288 5.73254,-3.31034 1.54304,-1.41742 2.70927,-3.11298 3.49874,-5.08663 0.78945,-1.97365 1.18419,-4.14461 1.18419,-6.513 0,-4.91619 -1.51612,-8.75578 -4.54835,-11.5189 -3.03226,-2.76311 -7.61644,-4.14464 -13.7527,-4.14464 h -12.38015 z m -22.28422,37.14038 h -8.074 c -0.933,0 -1.68657,-0.23326 -2.26072,-0.69974 -0.57415,-0.4665 -1.00474,-1.05859 -1.29183,-1.77629 l -7.21277,-18.624 h -34.61053 l -7.21275,18.624 c -0.25121,0.64594 -0.68181,1.22008 -1.29186,1.72246 -0.61004,0.50238 -1.3636,0.75357 -2.26072,0.75357 h -8.07399 l 30.84266,-77.13355 h 10.60384 z m -50.54321,-28.63576 h 28.79725 l -12.11099,-31.38094 c -0.78947,-1.93776 -1.56096,-4.35993 -2.31455,-7.26659 -0.39473,1.47126 -0.78047,2.82588 -1.15728,4.0639 -0.37678,1.23802 -0.74459,2.32352 -1.10345,3.25653 z"
     style="stroke-width:0.448555;fill:#000000" />
  <text
     id="Text"
     xml:space="preserve"
     x="4361.7598"
     y="-1200"
     font-family="Lato"
     font-size="240px"
     fill="#fffcfc"
     letter-spacing="7.2">Text</text>
  <path
     id="path1"
     fill="#ffffff"
     stroke="none"
     d="m 197.20863,261.03022 c -0.57513,-0.29897 -0.91828,-0.82598 -1.30821,-0.86328 -8.06875,-0.771 -15.78575,-2.89674 -23.01056,-6.50084 -14.40954,-7.18819 -23.8077,-18.7703 -28.77101,-33.97494 -1.24897,-3.82606 -1.97263,-7.8236 -3.01077,-12.03903 3.35138,0 6.39049,0 9.42961,0 4.55912,0 9.11856,0.0307 13.6772,-0.0166 1.60968,-0.0167 2.36655,0.0503 2.86767,2.20395 2.89635,12.44787 10.16084,21.25239 22.48551,25.54891 6.95343,2.42402 14.17146,2.8831 21.33255,2.21283 10.42063,-0.97535 19.52848,-5.18384 26.28916,-13.459 3.88336,-4.75327 6.27818,-10.26885 7.3935,-16.37671 2.06745,-11.32187 0.98296,-22.72148 0.82524,-34.33326 -1.24458,1.52303 -2.5561,2.99677 -3.72102,4.57849 -3.27698,4.44946 -7.58015,7.67761 -12.26123,10.46487 -6.48897,3.8638 -13.60464,5.99149 -21.00708,7.00181 -5.91868,0.80783 -11.85004,0.45673 -17.8321,-0.26985 -8.6888,-1.05534 -16.51774,-4.22002 -23.76668,-8.75093 -6.77489,-4.2346 -12.17184,-10.05584 -16.46815,-16.84409 -5.01054,-7.91676 -8.35856,-16.49149 -9.348,-25.79595 -0.69478,-6.53366 -1.34142,-13.19554 -0.8328,-19.70827 1.04782,-13.4174 5.21147,-25.87181 13.84517,-36.536734 8.8134,-10.886876 19.99393,-17.696331 33.80495,-20.38831 6.00702,-1.170861 12.03085,-1.654248 18.04583,-1.195942 10.4103,0.793208 20.11375,3.831772 28.43366,10.508441 4.39382,3.52599 8.10578,7.591937 10.7894,12.568766 0.15337,0.284439 0.52244,0.45253 1.19106,1.005548 0.6312,-7.102134 1.22706,-13.806779 1.82358,-20.518546 7.59768,0 14.90364,0 22.35759,0 0.0347,0.615174 0.0948,1.185946 0.0948,1.756719 0.004,42.825838 0.27299,85.654318 -0.15037,128.475978 -0.13736,13.89472 -4.55861,26.87432 -13.24357,38.13232 -5.08188,6.58744 -11.32862,11.69413 -18.66608,15.48967 -6.25718,3.23666 -12.91598,5.28278 -19.89597,6.29096 -1.77041,0.25574 -3.51912,0.66161 -5.14217,1.16571 -5.25639,0.16723 -10.64843,0.16723 -16.25068,0.16723 m 37.72065,-160.11631 c -3.33196,-3.660397 -7.01089,-6.938245 -11.56452,-8.949988 -7.44164,-3.287614 -15.16381,-4.670971 -23.38844,-3.699173 -9.44945,1.116542 -17.43208,4.70426 -23.91644,11.769541 -7.29143,7.94463 -10.3091,17.48388 -10.86167,27.96605 -0.15871,3.01064 0.18244,6.05664 0.41524,9.07713 0.531,6.88961 2.75382,13.26842 6.30966,19.14098 4.41445,7.29047 10.70823,12.41031 18.74763,15.27748 6.8545,2.44458 13.866,2.77908 21.0597,1.66549 7.04267,-1.09017 13.3835,-3.66186 18.77578,-8.2613 9.47164,-8.07896 13.22078,-18.89176 13.97892,-30.91429 0.23643,-3.74937 9e-4,-7.57335 -0.46265,-11.30812 -0.38746,-3.12269 -1.26657,-6.21366 -2.20741,-9.23159 -1.40681,-4.51256 -3.74741,-8.57274 -6.8858,-12.53221 z"
     style="stroke-width:0.448555;fill:#697586;fill-opacity:1" />
  <path
     id="path2"
     fill="#ffffff"
     stroke="none"
     d="m 462.54369,197.68421 c -0.54576,-4.47485 -1.10157,-8.74455 -1.62902,-13.01777 -0.13513,-1.09497 -0.18048,-2.201 -0.31235,-3.87769 -0.83623,0.58849 -1.61498,0.87181 -1.97088,1.42648 -5.77874,9.00587 -14.253,14.28189 -24.20129,17.45104 -5.36862,1.71026 -10.87753,2.48335 -16.5571,2.69891 -7.4365,0.28226 -14.62807,-0.44289 -21.69433,-2.75876 -5.38446,-1.76465 -10.26314,-4.48653 -14.30884,-8.35677 -5.75962,-5.50989 -9.3146,-12.33019 -10.37505,-20.32087 -0.35594,-2.68197 -0.92463,-5.38671 -0.85026,-8.0659 0.31585,-11.38038 4.14971,-21.26622 13.12568,-28.68883 6.58526,-5.44561 14.28976,-8.66534 22.58413,-10.34032 4.63448,-0.93593 9.38064,-1.39292 14.09856,-1.82505 7.76659,-0.7114 15.5536,-1.19662 23.32714,-1.83665 5.2696,-0.43385 10.53081,-0.96953 16.05425,-1.48374 -9.3e-4,-5.61408 -0.29369,-11.28638 -2.33917,-16.66378 -2.95249,-7.761819 -8.76137,-12.423302 -16.68194,-14.579316 -4.95467,-1.348705 -10.03988,-1.699032 -15.10603,-1.297978 -7.26641,0.575207 -14.31448,1.993699 -20.35509,6.594566 -5.06103,3.85483 -7.79005,8.923198 -8.238,15.166398 -0.14944,2.08257 -0.54693,2.97286 -2.88454,2.91326 -6.47949,-0.16517 -12.96592,-0.0572 -19.63005,-0.0572 0.17095,-5.37174 0.95064,-10.43866 2.74959,-15.298768 2.09839,-5.669103 5.32833,-10.692115 9.73122,-14.81122 6.74095,-6.306443 14.82291,-10.218209 23.72563,-12.50337 8.20436,-2.105887 16.57862,-2.688353 24.97265,-2.185338 11.54412,0.69181 22.44672,3.692611 31.70255,10.989797 8.18403,6.452201 13.0648,15.13007 15.15336,25.210629 1.12235,5.41708 1.76728,11.02867 1.80638,16.55827 0.18333,25.93588 0.0815,51.8738 0.0815,77.81096 0,0.8034 0,1.60682 0,2.59397 -6.94752,0 -13.72805,0.0258 -20.50736,-0.0536 -0.49481,-0.005 -0.98069,-0.77387 -1.4713,-1.39142 m -3.14138,-45.98928 c 0,-4.93775 0,-9.8755 0,-15.05566 -1.40771,0.18112 -2.98842,0.44553 -4.5801,0.57823 -5.71381,0.47634 -11.43915,0.8272 -17.14546,1.37764 -6.83759,0.65955 -13.70957,1.18074 -20.47365,2.31598 -5.42612,0.91071 -10.58917,3.03599 -14.71401,6.85818 -5.73813,5.31709 -7.30891,12.00335 -5.65709,19.52388 1.32208,6.01921 4.93155,10.14615 10.48122,12.76463 4.66154,2.19944 9.6738,2.73609 14.63975,2.81483 4.91547,0.0779 9.83767,-0.65942 14.57481,-2.3251 8.56267,-3.01088 15.13342,-8.29475 18.83151,-16.65863 1.67348,-3.78499 2.70671,-7.85303 4.04302,-12.19398 z"
     style="stroke-width:0.448555;fill:#697586;fill-opacity:1" />
  <path
     id="path3"
     fill="#ffffff"
     stroke="none"
     d="m 496.18484,69.497094 c 5.30695,0 10.38977,0.0192 15.47219,-0.01455 1.1583,-0.0074 1.69484,0.243655 2.15079,1.54095 5.57387,15.858645 11.26113,31.677566 16.94298,47.498146 4.61336,12.84553 9.24094,25.68606 13.89996,38.51509 1.71707,4.72806 3.53503,9.41961 5.3312,14.11856 0.14855,0.38865 0.48335,0.70609 0.73163,1.05664 0.23855,-0.36746 0.5568,-0.70563 0.70412,-1.10661 4.92867,-13.41657 9.83074,-26.84295 14.75845,-40.25992 5.81944,-15.84491 11.64759,-31.686663 17.49685,-47.520614 1.68987,-4.574502 3.46535,-9.117385 5.23809,-13.770541 8.52433,0 17.18751,0 26.06869,0 -1.7687,4.578992 -3.5244,9.098412 -5.26093,13.625114 -3.91033,10.192918 -7.78858,20.398191 -11.7225,30.581961 -3.70162,9.5822 -7.48133,19.13418 -11.18339,28.71618 -3.62378,9.37938 -7.17246,18.78767 -10.79157,28.16881 -3.69719,9.58351 -7.46076,19.1414 -11.15644,28.7255 -3.33339,8.64451 -6.62679,17.30453 -9.91492,25.96645 -3.44324,9.07047 -7.54335,17.75626 -14.70692,24.58254 -5.51856,5.25867 -12.1681,8.23352 -19.68009,9.30401 -2.60399,0.37111 -5.23348,0.90046 -7.83983,0.84232 -4.40699,-0.0983 -8.81837,-0.48738 -13.20185,-0.98399 -3.01861,-0.342 -5.9932,-1.07198 -9.07145,-1.6442 0,-6.97861 0,-13.90382 0,-21.07925 4.23619,0 8.47129,0.11569 12.69733,-0.0307 4.78175,-0.16557 9.60764,-0.22528 14.31996,-0.94714 6.58563,-1.00882 11.20039,-5.21158 14.03912,-10.99318 2.49324,-5.0779 4.13646,-10.56615 6.43085,-15.75116 1.57262,-3.55401 -0.63248,-6.21712 -1.68764,-9.08175 -4.12041,-11.18635 -8.44146,-22.29898 -12.70802,-33.43133 -3.54754,-9.25622 -7.13598,-18.49674 -10.68287,-27.75323 -3.7777,-9.85886 -7.52449,-19.72959 -11.29117,-29.59272 -3.58772,-9.394544 -7.18426,-18.7857 -10.77559,-28.178858 -1.38002,-3.609496 -2.75625,-7.220418 -4.23792,-11.102514 3.32493,0 6.3658,0 9.63089,0 z"
     style="stroke-width:0.448555;fill:#697586;fill-opacity:1" />
  <path
     id="path4"
     fill="#ffffff"
     stroke="none"
     d="m 728.10044,67.254321 c 3.232,-0.149512 6.25766,-0.412749 9.28453,-0.427771 10.12249,-0.05035 19.68666,2.320659 28.72671,6.8527 5.15322,2.583493 9.78831,5.870312 14.2082,9.596495 6.77123,5.708536 11.80902,12.701099 15.74853,20.467915 3.2045,6.31778 5.35696,13.07074 6.03053,20.20249 0.31041,3.28583 0.974,6.59025 0.82975,9.85764 -0.50117,11.3465 -3.05876,22.14118 -8.85805,32.10417 -6.09439,10.46996 -14.23934,18.72199 -24.76313,24.73241 -7.5677,4.3222 -15.59264,7.03018 -24.24771,8.06351 -14.73109,1.75874 -28.65845,-0.64074 -41.4907,-8.15562 -4.10911,-2.40641 -7.87521,-5.4624 -11.5693,-8.49978 -6.91547,-5.68628 -11.84278,-12.95679 -15.63366,-20.98211 -3.13485,-6.63653 -5.27482,-13.59525 -5.68834,-20.99066 -0.18163,-3.24897 -0.49119,-6.50554 -0.41697,-9.75117 0.18927,-8.28162 2.17372,-16.20037 5.40834,-23.79783 3.9299,-9.230654 9.84836,-17.073292 17.34872,-23.65457 7.48061,-6.563943 16.10341,-11.185382 25.73276,-13.784176 2.99488,-0.808239 6.09308,-1.233221 9.34979,-1.833643 m 7.40163,108.998949 c 3.50744,-0.29901 7.10336,-0.20472 10.50617,-0.96939 10.98376,-2.46821 19.78885,-8.33333 26.15774,-17.72514 5.44218,-8.02516 8.08211,-16.7607 7.57954,-26.54732 -0.29232,-5.69252 -1.4511,-11.08358 -3.88329,-16.1595 -4.94726,-10.32497 -12.67112,-17.79132 -23.362,-22.114775 -8.46999,-3.42532 -17.22399,-4.133699 -25.99728,-1.969951 -9.20919,2.271316 -17.04747,6.993377 -23.22718,14.457826 -8.53246,10.30657 -11.75038,22.12505 -9.58784,35.07855 1.78238,10.67618 7.07678,19.68651 15.75887,26.56067 7.5456,5.97423 15.97456,9.26273 26.05527,9.38903 z"
     style="stroke-width:0.448555;fill:#eb5454;fill-opacity:1" />
  <path
     id="path5"
     fill="#ffffff"
     stroke="none"
     d="m 629.85429,111.6613 c 0,-35.947589 0,-71.670896 0,-107.5236967 8.35086,0 16.60667,0 24.99106,0 0,64.8909467 0,129.8118767 0,194.8623967 -8.2228,0 -16.47862,0 -24.99106,0 0,-29.01783 0,-58.06612 0,-87.3387 z"
     style="stroke-width:0.448555;fill:#eb5454;fill-opacity:1" />
  <path
     id="path6"
     fill="#ffffff"
     stroke="none"
     d="m 318.5569,124.24935 c 0,25.04015 0,49.87365 0,74.79342 -8.83203,0 -17.03419,0 -25.4021,0 0,-42.93303 0,-85.92583 0,-129.00792 7.81986,0 15.62765,0 23.45385,0 0.48649,5.841589 0.96572,11.596454 1.44495,17.351319 0.1518,0.04216 0.3036,0.08422 0.45539,0.126309 1.21102,-1.956154 2.31148,-3.991859 3.6526,-5.854313 5.24131,-7.278589 12.402,-11.693926 21.12017,-13.454692 3.78115,-0.763641 7.67889,-1.297668 11.52387,-1.298814 3.77134,-9.33e-4 7.54976,0.760359 11.30627,1.314609 0.50221,0.07414 1.27452,0.891698 1.27999,1.372307 0.0824,7.23099 0.0571,14.463228 0.0571,21.884727 -3.87731,0 -7.60319,-0.174318 -11.30676,0.03888 -6.31184,0.363335 -12.58612,1.041072 -18.41107,3.854051 -9.9121,4.786727 -15.76997,12.735857 -18.25993,23.311537 -0.41472,1.76143 -0.61494,3.57336 -0.91427,5.56859 z"
     style="stroke-width:0.448555;fill:#697586;fill-opacity:1" />
  <path
     id="path7"
     fill="#ffffff"
     stroke="none"
     d="m 765.62617,128.70639 c 3.78287,0.1913 5.71986,2.877 4.50185,6.13316 -0.53604,1.43304 -1.61624,2.39896 -3.32412,2.39469 -5.67799,-0.0143 -11.35616,-0.005 -16.91516,-0.005 -2.07889,-4.06676 -4.09365,-8.00832 -6.10858,-11.94988 -0.2219,0.0938 -0.44373,0.18759 -0.66564,0.28138 -3.21383,11.86414 -6.40872,23.73344 -9.67801,35.58221 -0.25492,0.92351 -1.03059,1.7033 -1.5642,2.5499 -0.81698,-0.79607 -1.91974,-1.44794 -2.40551,-2.41107 -3.67173,-7.27824 -7.24061,-14.60868 -10.79513,-21.94535 -0.72448,-1.49538 -1.75368,-2.17514 -3.43397,-2.12864 -2.83852,0.0785 -5.68105,0.0428 -8.52145,0.0151 -2.38892,-0.0234 -4.236,-1.86174 -4.19601,-4.11239 0.0457,-2.59855 1.67908,-4.3795 4.13942,-4.3945 5.00851,-0.0305 10.01898,-0.0748 15.02396,0.0594 0.78107,0.021 1.86565,0.77797 2.24971,1.49477 1.86369,3.47767 3.53662,7.05768 5.57113,11.2001 1.13193,-3.90621 2.15078,-7.21618 3.04841,-10.55873 2.42816,-9.04212 4.78399,-18.10378 7.24657,-27.13638 0.17389,-0.63763 0.98434,-1.10169 1.79275,-1.95759 0.83533,1.20214 1.65137,2.117 2.17782,3.17586 3.62938,7.3003 7.22829,14.61626 10.75838,21.96489 0.62164,1.29382 1.3159,1.86813 2.81904,1.78856 2.68375,-0.14212 5.38036,-0.0399 8.27874,-0.0399 z"
     style="stroke-width:0.448555;fill:#697586;fill-opacity:1" />
</svg>
