<?xml version="1.0" encoding="UTF-8" standalone="no"?>
<svg
   xmlns:dc="http://purl.org/dc/elements/1.1/"
   xmlns:cc="http://creativecommons.org/ns#"
   xmlns:rdf="http://www.w3.org/1999/02/22-rdf-syntax-ns#"
   xmlns:svg="http://www.w3.org/2000/svg"
   xmlns="http://www.w3.org/2000/svg"
   xmlns:sodipodi="http://sodipodi.sourceforge.net/DTD/sodipodi-0.dtd"
   xmlns:inkscape="http://www.inkscape.org/namespaces/inkscape"
   width="48"
   height="48"
   viewBox="0 0 48 48"
   version="1.1"
   id="svg6"
   sodipodi:docname="Resurface-icon-circle-blue.svg"
   style="fill:none"
   inkscape:version="0.92.5 (2060ec1f9f, 2020-04-08)">
  <metadata
     id="metadata12">
    <rdf:RDF>
      <cc:Work
         rdf:about="">
        <dc:format>image/svg+xml</dc:format>
        <dc:type
           rdf:resource="http://purl.org/dc/dcmitype/StillImage" />
        <dc:title></dc:title>
      </cc:Work>
    </rdf:RDF>
  </metadata>
  <defs
     id="defs10" />
  <sodipodi:namedview
     pagecolor="#ffffff"
     bordercolor="#666666"
     borderopacity="1"
     objecttolerance="10"
     gridtolerance="10"
     guidetolerance="10"
     inkscape:pageopacity="0"
     inkscape:pageshadow="2"
     inkscape:window-width="1920"
     inkscape:window-height="1015"
     id="namedview8"
     showgrid="false"
     inkscape:zoom="2.36"
     inkscape:cx="50"
     inkscape:cy="50"
     inkscape:window-x="0"
     inkscape:window-y="0"
     inkscape:window-maximized="1"
     inkscape:current-layer="svg6" />
  <rect
     width="48"
     height="48"
     rx="24"
     id="rect2"
     x="0"
     y="0"
     style="fill:#0b64ff;stroke-width:0.47999999" />
  <path
     d="m 26.71944,36.568224 c 0.174336,0.197136 0.398928,0.375264 0.63624,0.526992 0.363984,0.232848 0.722784,0.381696 0.888384,0.431232 l 0.0037,0.0011 0.0037,0.0012 c 0.46248,0.152976 0.829344,0.192768 1.113696,0.223632 l 0.0396,0.0043 c 0.137136,0.01502 0.283344,0.03134 0.401616,0.06994 0.13056,0.04253 0.273744,0.127536 0.339312,0.305472 l 6.72e-4,0.0017 c 0.05952,0.165072 0.02942,0.337968 -0.02136,0.477456 -0.0527,0.14472 -0.140208,0.289152 -0.245328,0.42096 -0.208128,0.261024 -0.516768,0.511392 -0.858,0.631584 -1.249152,0.447216 -2.422224,0.25152 -2.984784,0.07939 -0.916656,-0.269664 -1.58472,-0.72744 -2.000688,-1.013568 -0.205104,-0.13824 -0.503616,-0.3792 -0.833808,-0.645792 l -1.44e-4,-9.6e-5 -3.84e-4,-3.36e-4 -3.84e-4,-2.88e-4 C 23.051664,37.962288 22.895424,37.836144 22.738416,37.71192 22.353984,37.40784 21.959232,37.110384 21.607776,36.891744 19.671936,36.68856 17.744256,36.111648 15.92712,35.131056 12.4536,33.256704 9.992688,30.233712 8.75688,26.780448 l -0.038544,-0.107616 0.046512,-0.01666 c -0.00408,-0.0045 -0.00811,-0.0091 -0.012096,-0.01382 -0.00374,-0.0045 -0.00749,-0.0091 -0.011088,-0.01387 -0.044064,-0.05923 -0.082224,-0.13877 -0.082272,-0.257186 -5.76e-4,-0.23976 0.155328,-0.63936 0.736464,-1.354176 0.028368,-0.0384 0.058128,-0.07219 0.087888,-0.105984 0.029712,-0.03379 0.059472,-0.06763 0.08784,-0.105984 1.772736,-2.034432 4.481664,-3.103536 7.246128,-2.854224 0.800832,0.07934 1.805472,0.207312 3.321072,0.411648 l 0.384864,0.05429 c 2.802768,0.377328 5.203488,0.4764 7.129008,0.319008 1.877088,-0.152832 3.570096,-0.98784 4.747968,-2.346288 0.325776,-0.376368 0.585792,-0.772944 0.785472,-1.171344 0.43512,-0.878496 0.59064,-1.722144 0.608352,-2.418336 0.0026,-0.101856 0.0022,-0.200544 -6.72e-4,-0.295728 -0.01622,-0.535584 -0.111744,-0.959952 -0.207408,-1.21032 -0.2016,-0.507552 -0.408864,-0.834144 -0.598896,-0.93672 -0.221712,0.524592 -0.704976,1.107456 -1.342656,1.606992 -0.798672,0.62736 -1.723344,1.033392 -2.614848,1.150512 -0.103344,0.02093 -0.21024,-0.03677 -0.274176,-0.117264 -0.04522,-0.05179 -0.06437,-0.111408 -0.06418,-0.17256 0,-0.04181 0.0091,-0.08434 0.02515,-0.125664 l 0.02563,-0.04752 c 0.09614,-0.178176 0.277536,-0.571152 0.335904,-1.47528 0.0803,-1.377888 0.842928,-2.315904 1.304736,-2.828112 0.04162,-0.04622 0.08083,-0.08894 0.116832,-0.128208 0.01234,-0.01339 0.02429,-0.0264 0.03581,-0.03902 0.0044,-0.0048 0.0086,-0.0095 0.01286,-0.01406 -0.5796,-0.205584 -1.653504,-0.800736 -2.014464,-1.808112 -0.03941,-0.106896 -0.07762,-0.196128 -0.112608,-0.277728 v -4.8e-5 c -0.05894,-0.137568 -0.108528,-0.2532 -0.13824,-0.394416 l -0.01618,-0.073584 c -0.184032,-0.835776 -0.26712,-1.2132 -0.77736,-1.980528 -0.02616,-0.042 -0.03965,-0.089856 -0.0395,-0.13728 -9.6e-5,-0.057264 0.01963,-0.113952 0.06077,-0.159072 0.08146,-0.09408 0.227808,-0.137856 0.352992,-0.085632 0.02822,0.015216 0.09014,0.039072 0.165072,0.067872 0.01973,0.00758 0.04042,0.015552 0.06158,0.02376 1.032768,0.38856 1.97952,0.822768 2.846736,1.29072 1.484928,0.801312 2.718336,1.727616 3.677376,2.735952 l 0.04661,0.05582 c 1.015056,1.080432 2.176512,2.520048 2.699088,4.501104 1.647072,4.117728 1.528656,8.901744 -0.713088,13.056096 -0.778272,1.442256 -1.753824,2.702448 -2.880672,3.781488 0.22008,0.09072 0.414,0.156048 0.561456,0.20568 l 0.02323,0.0078 c 0.639792,0.207168 1.157184,0.271632 1.536576,0.307632 l 0.02995,0.0036 c 0.46008,0.0551 0.797328,0.09552 0.923232,0.418704 0.02573,0.06682 0.03778,0.13824 0.03773,0.21288 3.84e-4,0.574416 -0.717744,1.34136 -1.4556,1.676688 -1.701504,0.785424 -3.298512,0.314976 -3.996192,0.10944 l -0.01742,-0.0051 c -0.414864,-0.12432 -0.792912,-0.277104 -1.133952,-0.440496 l -0.0275,0.01402 c -1.121904,0.573936 -2.307648,1.008048 -3.52872,1.294032 z m 6.190272,-4.249968 c 1.155984,-1.061712 2.151408,-2.317296 2.935008,-3.769488 0.747648,-1.385472 1.2444,-2.845488 1.505328,-4.325664 -0.2904,0.946416 -0.67992,1.88064 -1.168896,2.786784 -1.022208,1.894368 -2.416512,3.459264 -4.050288,4.653792 0.01622,0.01646 0.03269,0.03298 0.04934,0.04958 l 0.01738,0.02467 c 0.227376,0.232752 0.470688,0.42336 0.712128,0.58032 z m -1.363488,-1.346592 c 1.54944,-1.121328 2.871936,-2.597232 3.83976,-4.390848 0.939072,-1.740288 1.50168,-3.588336 1.688544,-5.414688 -0.241008,0.687648 -0.526752,1.314144 -0.788928,1.888464 -0.58992,1.292208 -1.407792,2.921568 -2.661456,4.193088 -0.679872,0.691488 -1.5216,1.341696 -2.072352,1.765392 l -9.6e-5,9.6e-5 c -0.203952,0.150624 -0.407904,0.301248 -0.476544,0.371568 -0.0144,0.07829 -0.02333,0.164976 -0.02328,0.259968 2.4e-4,0.338304 0.113616,0.781872 0.494352,1.32696 z M 16.356192,34.335936 C 13.1724,32.617872 10.892976,29.875824 9.701088,26.729904 c 0.053664,-0.0094 0.109536,-0.01944 0.16776,-0.03 0.099744,-0.01344 0.20688,-0.03211 0.31632,-0.05117 0.09024,-0.0157 0.182064,-0.03168 0.272544,-0.04522 0,0 0.327024,-0.03058 0.798576,-0.0371 1.23384,2.533248 3.24576,4.72632 5.914128,6.166176 3.427296,1.84944 7.29672,2.117472 10.76184,1.052544 l 0.01349,-0.0041 0.0697,0.04973 c 0.219936,0.157056 0.43992,0.314112 0.701136,0.493392 0.17112,0.119568 0.370128,0.2568 0.596976,0.400272 -4.011504,1.854624 -8.79312,1.858608 -12.95736,-0.388464 z m 1.243344,-2.398464 c -2.342064,-1.263792 -4.14288,-3.147168 -5.309664,-5.332992 0.466032,0.03302 1.020624,0.08515 1.673712,0.295632 1.201872,0.387792 1.982928,1.100688 2.358384,1.456656 0.193632,0.1812 0.392784,0.380688 0.590976,0.61032 0.631152,0.678048 1.420272,1.518 2.876928,2.258016 1.429584,0.725904 3.066576,0.677712 4.067184,0.64824 l 0.03173,-9.6e-4 c 0.314496,-0.01435 0.592464,-0.01776 0.736896,-0.0012 0.468912,0.06898 1.051968,0.352944 1.821312,0.860112 0.206016,0.140304 0.387072,0.264096 0.55056,0.376752 -3.06696,0.7692 -6.411936,0.440688 -9.398016,-1.170624 z M 20.21664,28.38768 c 0.269232,-0.49896 0.891072,-0.684912 1.389984,-0.41568 0.289056,0.156 0.47304,0.430272 0.524352,0.730464 0.0097,0.05678 0.01469,0.11448 0.01474,0.172512 -9.6e-5,0.164352 -0.03984,0.331104 -0.123408,0.486 -0.208464,0.386304 -0.628272,0.584976 -1.038768,0.530064 -0.119712,-0.01603 -0.238608,-0.05362 -0.351264,-0.114384 -0.34368,-0.185472 -0.538848,-0.538224 -0.53904,-0.90288 9.6e-5,-0.1644 0.03979,-0.3312 0.123408,-0.486096 z"
     id="path4"
     inkscape:connector-curvature="0"
     style="clip-rule:evenodd;fill:#ffffff;fill-rule:evenodd;stroke-width:0.47999999" />
</svg>
